<?xml version="1.0" encoding="UTF-8"?>
<svg width="16px" height="12px" viewBox="0 0 16 12" version="1.1" xmlns="http://www.w3.org/2000/svg" xmlns:xlink="http://www.w3.org/1999/xlink">
    <!-- Generator: Sketch 43.1 (39012) - http://www.bohemiancoding.com/sketch -->
    <title>eye</title>
    <desc>Created with Sketch.</desc>
    <defs></defs>
    <g id="Page-1" stroke="none" stroke-width="1" fill="none" fill-rule="evenodd">
        <g id="eye" fill-rule="nonzero" fill="#333333">
            <path d="M8.06,0 C3,0 0,6 0,6 C0,6 3,12 8.06,12 C13,12 16,6 16,6 C16,6 13,0 8.06,0 L8.06,0 Z M8,10 C5.8,10 4,8.22 4,6 C4,3.8 5.8,2 8,2 C10.22,2 12,3.8 12,6 C12,8.22 10.22,10 8,10 Z M10,6 C10,7.11 9.11,8 8,8 C6.89,8 6,7.11 6,6 C6,4.89 6.89,4 8,4 C9.11,4 10,4.89 10,6 Z" id="Shape"></path>
        </g>
    </g>
</svg>